<?xml version="1.0" encoding="UTF-8" standalone="no"?>
<!DOCTYPE svg PUBLIC "-//W3C//DTD SVG 1.1//EN"
 "http://www.w3.org/Graphics/SVG/1.1/DTD/svg11.dtd">
<!-- Generated by graphviz version 2.40.1 (20161225.0304)
 -->
<!-- Title: G Pages: 1 -->
<svg width="249pt" height="49pt"
 viewBox="0.00 0.00 248.79 48.97" xmlns="http://www.w3.org/2000/svg" xmlns:xlink="http://www.w3.org/1999/xlink">
<g id="graph0" class="graph" transform="scale(1 1) rotate(0) translate(4 44.9663)">
<title>G</title>
<polygon fill="#ffffff" stroke="transparent" points="-4,4 -4,-44.9663 244.7878,-44.9663 244.7878,4 -4,4"/>
<!-- learn -->
<g id="node1" class="node">
<title>learn</title>
<ellipse fill="none" stroke="#000000" stroke-width="2" cx="38.3466" cy="-22.9663" rx="38.1938" ry="18"/>
<text text-anchor="middle" x="38.3466" y="-19.2663" font-family="Times,serif" font-size="14.00" fill="#000000">Learner</text>
</g>
<!-- act -->
<g id="node2" class="node">
<title>act</title>
<ellipse fill="none" stroke="#000000" stroke-width="2" cx="210.2405" cy="-22.9663" rx="30.5947" ry="18"/>
<text text-anchor="middle" x="210.2405" y="-19.2663" font-family="Times,serif" font-size="14.00" fill="#000000">Actor</text>
</g>
<!-- learn&#45;&gt;act -->
<g id="edge1" class="edge">
<title>learn&#45;&gt;act</title>
<path fill="none" stroke="#000000" d="M76.9229,-22.9663C104.3954,-22.9663 141.2584,-22.9663 169.2585,-22.9663"/>
<polygon fill="#000000" stroke="#000000" points="169.5179,-26.4664 179.5178,-22.9663 169.5178,-19.4664 169.5179,-26.4664"/>
<text text-anchor="middle" x="128.1932" y="-26.7663" font-family="Times,serif" font-size="14.00" fill="#000000">Parameters</text>
</g>
<!-- act&#45;&gt;learn -->
<g id="edge2" class="edge">
<title>act&#45;&gt;learn</title>
<path fill="none" stroke="#000000" d="M186.0705,-11.4653C178.4467,-8.3986 169.8755,-5.5104 161.6932,-3.9663 132.4319,1.5558 124.0781,.8547 94.6932,-3.9663 88.8848,-4.9192 82.8687,-6.3901 77.0255,-8.101"/>
<polygon fill="#000000" stroke="#000000" points="75.8896,-4.7895 67.4224,-11.1579 78.0129,-11.4597 75.8896,-4.7895"/>
<text text-anchor="middle" x="128.1932" y="-7.7663" font-family="Times,serif" font-size="14.00" fill="#000000">Experiences</text>
</g>
</g>
</svg>
