<?xml version="1.0" encoding="UTF-8" standalone="no"?>
<!DOCTYPE svg PUBLIC "-//W3C//DTD SVG 1.1//EN"
 "http://www.w3.org/Graphics/SVG/1.1/DTD/svg11.dtd">
<!-- Generated by graphviz version 2.40.1 (20161225.0304)
 -->
<!-- Title: G Pages: 1 -->
<svg width="332pt" height="305pt"
 viewBox="0.00 0.00 332.08 305.00" xmlns="http://www.w3.org/2000/svg" xmlns:xlink="http://www.w3.org/1999/xlink">
<g id="graph0" class="graph" transform="scale(1 1) rotate(0) translate(4 301)">
<title>G</title>
<polygon fill="#ffffff" stroke="transparent" points="-4,4 -4,-301 328.0849,-301 328.0849,4 -4,4"/>
<!-- learn -->
<g id="node1" class="node">
<title>learn</title>
<ellipse fill="none" stroke="#000000" stroke-width="2" cx="163.0849" cy="-279" rx="38.1938" ry="18"/>
<text text-anchor="middle" x="163.0849" y="-275.3" font-family="Times,serif" font-size="14.00" fill="#000000">Learner</text>
</g>
<!-- act -->
<g id="node2" class="node">
<title>act</title>
<ellipse fill="none" stroke="#000000" stroke-width="2" cx="68.0849" cy="-192" rx="55.7903" ry="18"/>
<text text-anchor="middle" x="68.0849" y="-188.3" font-family="Times,serif" font-size="14.00" fill="#000000">Actor Policy</text>
</g>
<!-- learn&#45;&gt;act -->
<g id="edge1" class="edge">
<title>learn&#45;&gt;act</title>
<path fill="none" stroke="#000000" d="M130.1787,-269.3429C115.6712,-263.6708 99.3884,-255.17 88.0849,-243 82.103,-236.5595 77.8335,-228.1222 74.8197,-219.9692"/>
<polygon fill="#000000" stroke="#000000" points="78.1137,-218.7786 71.7356,-210.3187 71.4459,-220.9096 78.1137,-218.7786"/>
<text text-anchor="middle" x="118.5849" y="-231.8" font-family="Times,serif" font-size="14.00" fill="#000000">Parameters</text>
</g>
<!-- rep -->
<g id="node4" class="node">
<title>rep</title>
<ellipse fill="none" stroke="#000000" stroke-width="2" cx="163.0849" cy="-18" rx="66.0889" ry="18"/>
<text text-anchor="middle" x="163.0849" y="-14.3" font-family="Times,serif" font-size="14.00" fill="#000000">Replay sampler</text>
</g>
<!-- learn&#45;&gt;rep -->
<g id="edge6" class="edge">
<title>learn&#45;&gt;rep</title>
<path fill="none" stroke="#000000" d="M162.4981,-260.6644C161.7611,-236.6315 160.538,-193.1645 160.0849,-156 159.6232,-118.1341 160.8746,-74.4332 161.9001,-46.5292"/>
<polygon fill="#000000" stroke="#000000" points="165.4064,-46.4293 162.292,-36.3026 158.4115,-46.1612 165.4064,-46.4293"/>
<text text-anchor="middle" x="185.0849" y="-144.8" font-family="Times,serif" font-size="14.00" fill="#000000">Priorities</text>
</g>
<!-- env -->
<g id="node3" class="node">
<title>env</title>
<ellipse fill="none" stroke="#000000" stroke-width="2" cx="68.0849" cy="-105" rx="57.3905" ry="18"/>
<text text-anchor="middle" x="68.0849" y="-101.3" font-family="Times,serif" font-size="14.00" fill="#000000">Environment</text>
</g>
<!-- act&#45;&gt;env -->
<g id="edge2" class="edge">
<title>act&#45;&gt;env</title>
<path fill="none" stroke="#000000" d="M29.4666,-178.7727C10.5278,-169.9655 -6.3819,-157.0649 3.0849,-141 7.2293,-133.9671 13.2965,-128.2114 20.0827,-123.5312"/>
<polygon fill="#000000" stroke="#000000" points="22.2214,-126.3284 28.9725,-118.163 18.6029,-120.3362 22.2214,-126.3284"/>
<text text-anchor="middle" x="24.5849" y="-144.8" font-family="Times,serif" font-size="14.00" fill="#000000">Actions</text>
</g>
<!-- env&#45;&gt;act -->
<g id="edge3" class="edge">
<title>env&#45;&gt;act</title>
<path fill="none" stroke="#000000" d="M68.0849,-123.0034C68.0849,-134.7801 68.0849,-150.4102 68.0849,-163.8156"/>
<polygon fill="#000000" stroke="#000000" points="64.585,-163.9735 68.0849,-173.9735 71.585,-163.9736 64.585,-163.9735"/>
<text text-anchor="middle" x="104.0849" y="-144.8" font-family="Times,serif" font-size="14.00" fill="#000000">Observations</text>
</g>
<!-- env&#45;&gt;rep -->
<g id="edge4" class="edge">
<title>env&#45;&gt;rep</title>
<path fill="none" stroke="#000000" d="M83.4231,-87.3246C92.5359,-77.1828 104.5359,-64.4328 116.0849,-54 120.8899,-49.6593 126.1764,-45.2749 131.4164,-41.131"/>
<polygon fill="#000000" stroke="#000000" points="133.7624,-43.7414 139.5364,-34.8582 129.483,-38.2018 133.7624,-43.7414"/>
<text text-anchor="middle" x="132.5849" y="-57.8" font-family="Times,serif" font-size="14.00" fill="#000000">States</text>
</g>
<!-- rep&#45;&gt;learn -->
<g id="edge5" class="edge">
<title>rep&#45;&gt;learn</title>
<path fill="none" stroke="#000000" d="M176.5741,-35.7739C194.5212,-61.5567 223.0125,-111.1598 214.0849,-156 207.151,-190.8264 190.176,-228.1439 177.7065,-252.4241"/>
<polygon fill="#000000" stroke="#000000" points="174.5608,-250.8865 173.013,-261.3676 180.7591,-254.1393 174.5608,-250.8865"/>
<text text-anchor="middle" x="269.5849" y="-144.8" font-family="Times,serif" font-size="14.00" fill="#000000">Batched Transitions</text>
</g>
</g>
</svg>
