<?xml version="1.0" encoding="UTF-8" standalone="no"?>
<!DOCTYPE svg PUBLIC "-//W3C//DTD SVG 1.1//EN"
 "http://www.w3.org/Graphics/SVG/1.1/DTD/svg11.dtd">
<!-- Generated by graphviz version 2.40.1 (20161225.0304)
 -->
<!-- Title: G Pages: 1 -->
<svg width="358pt" height="392pt"
 viewBox="0.00 0.00 357.63 392.00" xmlns="http://www.w3.org/2000/svg" xmlns:xlink="http://www.w3.org/1999/xlink">
<g id="graph0" class="graph" transform="scale(1 1) rotate(0) translate(4 388)">
<title>G</title>
<polygon fill="#ffffff" stroke="transparent" points="-4,4 -4,-388 353.631,-388 353.631,4 -4,4"/>
<!-- learn -->
<g id="node1" class="node">
<title>learn</title>
<ellipse fill="none" stroke="#ff0000" cx="154.631" cy="-366" rx="38.1938" ry="18"/>
<text text-anchor="middle" x="154.631" y="-362.3" font-family="Times,serif" font-size="14.00" fill="#000000">Learner</text>
</g>
<!-- act -->
<g id="node2" class="node">
<title>act</title>
<ellipse fill="none" stroke="#ff0000" cx="67.631" cy="-279" rx="55.7903" ry="18"/>
<text text-anchor="middle" x="67.631" y="-275.3" font-family="Times,serif" font-size="14.00" fill="#000000">Actor Policy</text>
</g>
<!-- learn&#45;&gt;act -->
<g id="edge1" class="edge">
<title>learn&#45;&gt;act</title>
<path fill="none" stroke="#000000" d="M120.9095,-357.0478C106.2305,-351.5239 90.0386,-342.9446 79.631,-330 74.4213,-323.5203 71.402,-315.166 69.6732,-307.1017"/>
<polygon fill="#000000" stroke="#000000" points="73.1271,-306.5344 68.1057,-297.2051 66.2132,-307.6295 73.1271,-306.5344"/>
<text text-anchor="middle" x="110.131" y="-318.8" font-family="Times,serif" font-size="14.00" fill="#000000">Parameters</text>
</g>
<!-- rep -->
<g id="node5" class="node">
<title>rep</title>
<ellipse fill="none" stroke="#00ff00" cx="154.631" cy="-18" rx="66.0889" ry="18"/>
<text text-anchor="middle" x="154.631" y="-14.3" font-family="Times,serif" font-size="14.00" fill="#000000">Replay sampler</text>
</g>
<!-- learn&#45;&gt;rep -->
<g id="edge7" class="edge">
<title>learn&#45;&gt;rep</title>
<path fill="none" stroke="#000000" d="M154.631,-347.6694C154.631,-330.0629 154.631,-302.7135 154.631,-279 154.631,-279 154.631,-279 154.631,-105 154.631,-85.5475 154.631,-63.6484 154.631,-46.6877"/>
<polygon fill="#000000" stroke="#000000" points="158.1311,-46.3305 154.631,-36.3306 151.1311,-46.3306 158.1311,-46.3305"/>
<text text-anchor="middle" x="179.631" y="-188.3" font-family="Times,serif" font-size="14.00" fill="#000000">Priorities</text>
</g>
<!-- env -->
<g id="node3" class="node">
<title>env</title>
<ellipse fill="none" stroke="#00ff00" cx="61.631" cy="-192" rx="57.3905" ry="18"/>
<text text-anchor="middle" x="61.631" y="-188.3" font-family="Times,serif" font-size="14.00" fill="#000000">Environment</text>
</g>
<!-- act&#45;&gt;env -->
<g id="edge2" class="edge">
<title>act&#45;&gt;env</title>
<path fill="none" stroke="#000000" d="M28.8591,-266.0168C18.5268,-260.5859 8.5908,-253.1135 2.631,-243 -4.6429,-230.6563 4.1779,-219.8032 17.0303,-211.3175"/>
<polygon fill="#000000" stroke="#000000" points="19.0792,-214.1732 25.9298,-206.0912 15.5344,-208.1371 19.0792,-214.1732"/>
<text text-anchor="middle" x="24.131" y="-231.8" font-family="Times,serif" font-size="14.00" fill="#000000">Actions</text>
</g>
<!-- env&#45;&gt;act -->
<g id="edge3" class="edge">
<title>env&#45;&gt;act</title>
<path fill="none" stroke="#000000" d="M62.8727,-210.0034C63.6848,-221.7801 64.7628,-237.4102 65.6873,-250.8156"/>
<polygon fill="#000000" stroke="#000000" points="62.208,-251.2381 66.3878,-260.9735 69.1914,-250.7564 62.208,-251.2381"/>
<text text-anchor="middle" x="101.631" y="-231.8" font-family="Times,serif" font-size="14.00" fill="#000000">Observations</text>
</g>
<!-- add -->
<g id="node4" class="node">
<title>add</title>
<ellipse fill="none" stroke="#00ff00" cx="72.631" cy="-105" rx="32.4942" ry="18"/>
<text text-anchor="middle" x="72.631" y="-101.3" font-family="Times,serif" font-size="14.00" fill="#000000">Adder</text>
</g>
<!-- env&#45;&gt;add -->
<g id="edge4" class="edge">
<title>env&#45;&gt;add</title>
<path fill="none" stroke="#000000" d="M63.9103,-173.9735C65.3999,-162.1918 67.3763,-146.5607 69.0708,-133.1581"/>
<polygon fill="#000000" stroke="#000000" points="72.5727,-133.3634 70.3548,-123.0034 65.6279,-132.4853 72.5727,-133.3634"/>
<text text-anchor="middle" x="85.131" y="-144.8" font-family="Times,serif" font-size="14.00" fill="#000000">States</text>
</g>
<!-- add&#45;&gt;rep -->
<g id="edge5" class="edge">
<title>add&#45;&gt;rep</title>
<path fill="none" stroke="#000000" d="M71.0756,-86.921C71.0895,-76.3939 72.7877,-63.389 79.631,-54 84.9467,-46.7069 92.1356,-40.8293 99.9666,-36.1107"/>
<polygon fill="#000000" stroke="#000000" points="101.8541,-39.0702 109.0153,-31.2621 98.5479,-32.9002 101.8541,-39.0702"/>
<text text-anchor="middle" x="110.131" y="-57.8" font-family="Times,serif" font-size="14.00" fill="#000000">Transitions</text>
</g>
<!-- rep&#45;&gt;learn -->
<g id="edge6" class="edge">
<title>rep&#45;&gt;learn</title>
<path fill="none" stroke="#000000" d="M186.6543,-34.0101C211.1053,-48.7492 240.631,-73.1428 240.631,-105 240.631,-279 240.631,-279 240.631,-279 240.631,-309.3199 213.8861,-332.8792 190.2255,-347.789"/>
<polygon fill="#000000" stroke="#000000" points="188.1624,-344.9444 181.3706,-353.0759 191.7509,-350.9546 188.1624,-344.9444"/>
<text text-anchor="middle" x="295.131" y="-188.3" font-family="Times,serif" font-size="14.00" fill="#000000">Batched Transitions</text>
</g>
</g>
</svg>
