<?xml version="1.0" encoding="UTF-8" standalone="no"?>
<!DOCTYPE svg PUBLIC "-//W3C//DTD SVG 1.1//EN"
 "http://www.w3.org/Graphics/SVG/1.1/DTD/svg11.dtd">
<!-- Generated by graphviz version 2.40.1 (20161225.0304)
 -->
<!-- Title: G Pages: 1 -->
<svg width="468pt" height="740pt"
 viewBox="0.00 0.00 467.90 740.00" xmlns="http://www.w3.org/2000/svg" xmlns:xlink="http://www.w3.org/1999/xlink">
<g id="graph0" class="graph" transform="scale(1 1) rotate(0) translate(4 736)">
<title>G</title>
<polygon fill="#ffffff" stroke="transparent" points="-4,4 -4,-736 463.9003,-736 463.9003,4 -4,4"/>
<!-- learn -->
<g id="node1" class="node">
<title>learn</title>
<ellipse fill="none" stroke="#ff0000" stroke-width="2" cx="285.9003" cy="-714" rx="38.1938" ry="18"/>
<text text-anchor="middle" x="285.9003" y="-710.3" font-family="Times,serif" font-size="14.00" fill="#000000">Learner</text>
</g>
<!-- async_policy -->
<g id="node5" class="node">
<title>async_policy</title>
<ellipse fill="none" stroke="#0000ff" stroke-width="2" cx="179.9003" cy="-627" rx="61.99" ry="18"/>
<text text-anchor="middle" x="179.9003" y="-623.3" font-family="Times,serif" font-size="14.00" fill="#000000">Policy delayer</text>
</g>
<!-- learn&#45;&gt;async_policy -->
<g id="edge1" class="edge">
<title>learn&#45;&gt;async_policy</title>
<path fill="none" stroke="#000000" d="M254.2827,-703.5684C239.8801,-697.6945 223.3169,-689.2484 210.9003,-678 203.5692,-671.3586 197.3947,-662.578 192.5338,-654.1773"/>
<polygon fill="#000000" stroke="#000000" points="195.5971,-652.4838 187.7821,-645.33 189.4303,-655.7959 195.5971,-652.4838"/>
<text text-anchor="middle" x="241.4003" y="-666.8" font-family="Times,serif" font-size="14.00" fill="#000000">Parameters</text>
</g>
<!-- rep -->
<g id="node6" class="node">
<title>rep</title>
<ellipse fill="none" stroke="#0000ff" stroke-width="2" cx="256.9003" cy="-105" rx="66.0889" ry="18"/>
<text text-anchor="middle" x="256.9003" y="-101.3" font-family="Times,serif" font-size="14.00" fill="#000000">Replay sampler</text>
</g>
<!-- learn&#45;&gt;rep -->
<g id="edge15" class="edge">
<title>learn&#45;&gt;rep</title>
<path fill="none" stroke="#000000" d="M285.9003,-695.6694C285.9003,-678.0629 285.9003,-650.7135 285.9003,-627 285.9003,-627 285.9003,-627 285.9003,-192 285.9003,-171.2378 278.3751,-149.0526 270.9914,-132.2818"/>
<polygon fill="#000000" stroke="#000000" points="274.1061,-130.6789 266.7184,-123.0847 267.7578,-133.6285 274.1061,-130.6789"/>
<text text-anchor="middle" x="310.9003" y="-405.8" font-family="Times,serif" font-size="14.00" fill="#000000">Priorities</text>
</g>
<!-- env -->
<g id="node2" class="node">
<title>env</title>
<ellipse fill="none" stroke="#ff0000" stroke-width="2" cx="200.9003" cy="-279" rx="57.3905" ry="18"/>
<text text-anchor="middle" x="200.9003" y="-275.3" font-family="Times,serif" font-size="14.00" fill="#000000">Environment</text>
</g>
<!-- vecenv -->
<g id="node8" class="node">
<title>vecenv</title>
<ellipse fill="none" stroke="#000000" stroke-width="2" cx="148.9003" cy="-366" rx="83.3857" ry="18"/>
<text text-anchor="middle" x="148.9003" y="-362.3" font-family="Times,serif" font-size="14.00" fill="#000000">Vector Environment</text>
</g>
<!-- env&#45;&gt;vecenv -->
<g id="edge9" class="edge">
<title>env&#45;&gt;vecenv</title>
<path fill="none" stroke="#000000" d="M201.1779,-297.0348C200.6037,-307.2963 198.6037,-320.0463 192.9003,-330 190.4529,-334.2711 187.2891,-338.2445 183.7808,-341.8739"/>
<polygon fill="#000000" stroke="#000000" points="181.2103,-339.4827 176.2152,-348.8261 185.9467,-344.637 181.2103,-339.4827"/>
<text text-anchor="middle" x="214.4003" y="-318.8" font-family="Times,serif" font-size="14.00" fill="#000000">States</text>
</g>
<!-- policy -->
<g id="node3" class="node">
<title>policy</title>
<ellipse fill="none" stroke="#ff0000" stroke-width="2" cx="132.9003" cy="-540" rx="33.2948" ry="18"/>
<text text-anchor="middle" x="132.9003" y="-536.3" font-family="Times,serif" font-size="14.00" fill="#000000">Policy</text>
</g>
<!-- act -->
<g id="node4" class="node">
<title>act</title>
<ellipse fill="none" stroke="#0000ff" stroke-width="2" cx="107.9003" cy="-453" rx="30.5947" ry="18"/>
<text text-anchor="middle" x="107.9003" y="-449.3" font-family="Times,serif" font-size="14.00" fill="#000000">Actor</text>
</g>
<!-- policy&#45;&gt;act -->
<g id="edge4" class="edge">
<title>policy&#45;&gt;act</title>
<path fill="none" stroke="#000000" d="M100.5452,-535.3926C66.5523,-529.8115 16.4351,-519.2265 4.9003,-504 -14.4837,-478.4123 31.1705,-464.8438 67.7754,-458.2931"/>
<polygon fill="#000000" stroke="#000000" points="68.5074,-461.7195 77.7983,-456.6274 67.3598,-454.8142 68.5074,-461.7195"/>
<text text-anchor="middle" x="60.4003" y="-492.8" font-family="Times,serif" font-size="14.00" fill="#000000">RNN States,Actions</text>
</g>
<!-- act&#45;&gt;policy -->
<g id="edge3" class="edge">
<title>act&#45;&gt;policy</title>
<path fill="none" stroke="#000000" d="M113.0737,-471.0034C116.4913,-482.8967 121.0382,-498.72 124.9156,-512.2132"/>
<polygon fill="#000000" stroke="#000000" points="121.5945,-513.3291 127.7203,-521.9735 128.3223,-511.3958 121.5945,-513.3291"/>
<text text-anchor="middle" x="190.9003" y="-492.8" font-family="Times,serif" font-size="14.00" fill="#000000">Observations,RNN states</text>
</g>
<!-- act&#45;&gt;vecenv -->
<g id="edge5" class="edge">
<title>act&#45;&gt;vecenv</title>
<path fill="none" stroke="#000000" d="M94.2973,-436.8321C87.3569,-426.5217 81.5809,-413.0672 87.9003,-402 90.9471,-396.6639 95.1286,-392.0394 99.8857,-388.0519"/>
<polygon fill="#000000" stroke="#000000" points="102.2916,-390.6309 108.3363,-381.9296 98.1847,-384.9623 102.2916,-390.6309"/>
<text text-anchor="middle" x="109.4003" y="-405.8" font-family="Times,serif" font-size="14.00" fill="#000000">Actions</text>
</g>
<!-- async_policy&#45;&gt;policy -->
<g id="edge2" class="edge">
<title>async_policy&#45;&gt;policy</title>
<path fill="none" stroke="#000000" d="M170.1618,-608.9735C163.5205,-596.6801 154.6151,-580.1956 147.1758,-566.4249"/>
<polygon fill="#000000" stroke="#000000" points="150.138,-564.5443 142.3055,-557.4097 143.9792,-567.8715 150.138,-564.5443"/>
<text text-anchor="middle" x="190.4003" y="-579.8" font-family="Times,serif" font-size="14.00" fill="#000000">Parameters</text>
</g>
<!-- batch_gen -->
<g id="node10" class="node">
<title>batch_gen</title>
<ellipse fill="none" stroke="#000000" stroke-width="2" cx="256.9003" cy="-18" rx="66.8882" ry="18"/>
<text text-anchor="middle" x="256.9003" y="-14.3" font-family="Times,serif" font-size="14.00" fill="#000000">Batch generator</text>
</g>
<!-- rep&#45;&gt;batch_gen -->
<g id="edge12" class="edge">
<title>rep&#45;&gt;batch_gen</title>
<path fill="none" stroke="#000000" d="M256.9003,-86.9735C256.9003,-75.1918 256.9003,-59.5607 256.9003,-46.1581"/>
<polygon fill="#000000" stroke="#000000" points="260.4004,-46.0033 256.9003,-36.0034 253.4004,-46.0034 260.4004,-46.0033"/>
<text text-anchor="middle" x="284.4003" y="-57.8" font-family="Times,serif" font-size="14.00" fill="#000000">Batch IDs</text>
</g>
<!-- add -->
<g id="node7" class="node">
<title>add</title>
<ellipse fill="none" stroke="#0000ff" stroke-width="2" cx="92.9003" cy="-279" rx="32.4942" ry="18"/>
<text text-anchor="middle" x="92.9003" y="-275.3" font-family="Times,serif" font-size="14.00" fill="#000000">Adder</text>
</g>
<!-- data_store -->
<g id="node9" class="node">
<title>data_store</title>
<ellipse fill="none" stroke="#000000" stroke-width="2" cx="111.9003" cy="-192" rx="48.1917" ry="18"/>
<text text-anchor="middle" x="111.9003" y="-188.3" font-family="Times,serif" font-size="14.00" fill="#000000">Data Store</text>
</g>
<!-- add&#45;&gt;data_store -->
<g id="edge10" class="edge">
<title>add&#45;&gt;data_store</title>
<path fill="none" stroke="#000000" d="M96.8371,-260.9735C99.4101,-249.1918 102.8238,-233.5607 105.7508,-220.1581"/>
<polygon fill="#000000" stroke="#000000" points="109.2542,-220.5199 107.9685,-210.0034 102.4154,-219.0263 109.2542,-220.5199"/>
<text text-anchor="middle" x="134.4003" y="-231.8" font-family="Times,serif" font-size="14.00" fill="#000000">Transitions</text>
</g>
<!-- vecenv&#45;&gt;env -->
<g id="edge8" class="edge">
<title>vecenv&#45;&gt;env</title>
<path fill="none" stroke="#000000" d="M145.4152,-348.0098C144.3368,-337.763 144.5868,-325.013 149.9003,-315 152.7642,-309.603 156.84,-304.8372 161.4551,-300.6863"/>
<polygon fill="#000000" stroke="#000000" points="163.9106,-303.2082 169.6122,-294.2783 159.5863,-297.7035 163.9106,-303.2082"/>
<text text-anchor="middle" x="171.4003" y="-318.8" font-family="Times,serif" font-size="14.00" fill="#000000">Actions</text>
</g>
<!-- vecenv&#45;&gt;act -->
<g id="edge6" class="edge">
<title>vecenv&#45;&gt;act</title>
<path fill="none" stroke="#000000" d="M143.5505,-384.3488C140.3882,-394.2435 136.0055,-406.536 130.9003,-417 129.1574,-420.5724 127.1362,-424.2268 125.0296,-427.7723"/>
<polygon fill="#000000" stroke="#000000" points="122.0612,-425.9181 119.7272,-436.2527 127.9965,-429.6292 122.0612,-425.9181"/>
<text text-anchor="middle" x="191.4003" y="-405.8" font-family="Times,serif" font-size="14.00" fill="#000000">Observations/dones</text>
</g>
<!-- vecenv&#45;&gt;add -->
<g id="edge7" class="edge">
<title>vecenv&#45;&gt;add</title>
<path fill="none" stroke="#000000" d="M125.1547,-348.4019C119.1819,-343.0411 113.2428,-336.7602 108.9003,-330 104.4366,-323.0512 101.1428,-314.7699 98.7448,-306.9225"/>
<polygon fill="#000000" stroke="#000000" points="102.056,-305.7571 96.0855,-297.0047 95.2949,-307.57 102.056,-305.7571"/>
<text text-anchor="middle" x="125.4003" y="-318.8" font-family="Times,serif" font-size="14.00" fill="#000000">States</text>
</g>
<!-- data_store&#45;&gt;rep -->
<g id="edge11" class="edge">
<title>data_store&#45;&gt;rep</title>
<path fill="none" stroke="#000000" d="M137.4896,-176.6464C160.5441,-162.8137 194.6895,-142.3264 220.5689,-126.7988"/>
<polygon fill="#000000" stroke="#000000" points="222.5722,-129.6786 229.3463,-121.5324 218.9707,-123.6761 222.5722,-129.6786"/>
<text text-anchor="middle" x="217.4003" y="-144.8" font-family="Times,serif" font-size="14.00" fill="#000000">Data IDs</text>
</g>
<!-- data_store&#45;&gt;batch_gen -->
<g id="edge13" class="edge">
<title>data_store&#45;&gt;batch_gen</title>
<path fill="none" stroke="#000000" d="M108.4876,-173.9309C105.2896,-151.5199 103.3034,-113.0894 120.9003,-87 138.5802,-60.7874 169.36,-44.0154 197.1705,-33.5803"/>
<polygon fill="#000000" stroke="#000000" points="198.6001,-36.787 206.8573,-30.1484 196.2625,-30.1889 198.6001,-36.787"/>
<text text-anchor="middle" x="151.4003" y="-101.3" font-family="Times,serif" font-size="14.00" fill="#000000">Batch Data</text>
</g>
<!-- batch_gen&#45;&gt;learn -->
<g id="edge14" class="edge">
<title>batch_gen&#45;&gt;learn</title>
<path fill="none" stroke="#000000" d="M292.1698,-33.3829C318.8427,-47.6701 350.9003,-71.7565 350.9003,-105 350.9003,-627 350.9003,-627 350.9003,-627 350.9003,-652.9967 332.0441,-676.2278 314.6438,-692.1309"/>
<polygon fill="#000000" stroke="#000000" points="312.0904,-689.7122 306.8245,-698.9057 316.6742,-695.0027 312.0904,-689.7122"/>
<text text-anchor="middle" x="405.4003" y="-362.3" font-family="Times,serif" font-size="14.00" fill="#000000">Batched Transitions</text>
</g>
</g>
</svg>
