<?xml version="1.0" encoding="UTF-8" standalone="no"?>
<!DOCTYPE svg PUBLIC "-//W3C//DTD SVG 1.1//EN"
 "http://www.w3.org/Graphics/SVG/1.1/DTD/svg11.dtd">
<!-- Generated by graphviz version 2.40.1 (20161225.0304)
 -->
<!-- Title: G Pages: 1 -->
<svg width="370pt" height="566pt"
 viewBox="0.00 0.00 370.19 566.00" xmlns="http://www.w3.org/2000/svg" xmlns:xlink="http://www.w3.org/1999/xlink">
<g id="graph0" class="graph" transform="scale(1 1) rotate(0) translate(4 562)">
<title>G</title>
<polygon fill="#ffffff" stroke="transparent" points="-4,4 -4,-562 366.1949,-562 366.1949,4 -4,4"/>
<!-- learn -->
<g id="node1" class="node">
<title>learn</title>
<ellipse fill="none" stroke="#ff0000" cx="173.1949" cy="-540" rx="38.1938" ry="18"/>
<text text-anchor="middle" x="173.1949" y="-536.3" font-family="Times,serif" font-size="14.00" fill="#000000">Learner</text>
</g>
<!-- act -->
<g id="node2" class="node">
<title>act</title>
<ellipse fill="none" stroke="#000000" cx="86.1949" cy="-453" rx="30.5947" ry="18"/>
<text text-anchor="middle" x="86.1949" y="-449.3" font-family="Times,serif" font-size="14.00" fill="#000000">Actor</text>
</g>
<!-- learn&#45;&gt;act -->
<g id="edge1" class="edge">
<title>learn&#45;&gt;act</title>
<path fill="none" stroke="#000000" d="M139.4734,-531.0478C124.7944,-525.5239 108.6025,-516.9446 98.1949,-504 92.9852,-497.5203 89.9659,-489.166 88.2371,-481.1017"/>
<polygon fill="#000000" stroke="#000000" points="91.6909,-480.5344 86.6696,-471.2051 84.7771,-481.6295 91.6909,-480.5344"/>
<text text-anchor="middle" x="128.6949" y="-492.8" font-family="Times,serif" font-size="14.00" fill="#000000">Parameters</text>
</g>
<!-- rep -->
<g id="node6" class="node">
<title>rep</title>
<ellipse fill="none" stroke="#000000" cx="159.1949" cy="-105" rx="66.0889" ry="18"/>
<text text-anchor="middle" x="159.1949" y="-101.3" font-family="Times,serif" font-size="14.00" fill="#000000">Replay sampler</text>
</g>
<!-- learn&#45;&gt;rep -->
<g id="edge10" class="edge">
<title>learn&#45;&gt;rep</title>
<path fill="none" stroke="#000000" d="M173.1949,-521.6694C173.1949,-504.0629 173.1949,-476.7135 173.1949,-453 173.1949,-453 173.1949,-453 173.1949,-192 173.1949,-172.1096 169.5838,-149.9824 166.0296,-133.0209"/>
<polygon fill="#000000" stroke="#000000" points="169.4332,-132.2022 163.8567,-123.1937 162.5983,-133.7135 169.4332,-132.2022"/>
<text text-anchor="middle" x="198.1949" y="-318.8" font-family="Times,serif" font-size="14.00" fill="#000000">Priorities</text>
</g>
<!-- env -->
<g id="node3" class="node">
<title>env</title>
<ellipse fill="none" stroke="#000000" cx="57.1949" cy="-366" rx="57.3905" ry="18"/>
<text text-anchor="middle" x="57.1949" y="-362.3" font-family="Times,serif" font-size="14.00" fill="#000000">Environment</text>
</g>
<!-- act&#45;&gt;env -->
<g id="edge2" class="edge">
<title>act&#45;&gt;env</title>
<path fill="none" stroke="#000000" d="M58.6493,-445.1484C44.8199,-439.658 29.3159,-430.7811 21.1949,-417 15.8027,-407.8495 19.8145,-398.2311 26.8206,-389.8439"/>
<polygon fill="#000000" stroke="#000000" points="29.4599,-392.15 33.9127,-382.5363 24.4366,-387.2748 29.4599,-392.15"/>
<text text-anchor="middle" x="42.6949" y="-405.8" font-family="Times,serif" font-size="14.00" fill="#000000">Actions</text>
</g>
<!-- env&#45;&gt;act -->
<g id="edge3" class="edge">
<title>env&#45;&gt;act</title>
<path fill="none" stroke="#000000" d="M63.196,-384.0034C67.1605,-395.8967 72.4349,-411.72 76.9326,-425.2132"/>
<polygon fill="#000000" stroke="#000000" points="73.7034,-426.5935 80.1861,-434.9735 80.3442,-424.3799 73.7034,-426.5935"/>
<text text-anchor="middle" x="110.1949" y="-405.8" font-family="Times,serif" font-size="14.00" fill="#000000">Observations</text>
</g>
<!-- add -->
<g id="node4" class="node">
<title>add</title>
<ellipse fill="none" stroke="#000000" cx="57.1949" cy="-279" rx="32.4942" ry="18"/>
<text text-anchor="middle" x="57.1949" y="-275.3" font-family="Times,serif" font-size="14.00" fill="#000000">Adder</text>
</g>
<!-- env&#45;&gt;add -->
<g id="edge4" class="edge">
<title>env&#45;&gt;add</title>
<path fill="none" stroke="#000000" d="M57.1949,-347.9735C57.1949,-336.1918 57.1949,-320.5607 57.1949,-307.1581"/>
<polygon fill="#000000" stroke="#000000" points="60.695,-307.0033 57.1949,-297.0034 53.695,-307.0034 60.695,-307.0033"/>
<text text-anchor="middle" x="73.6949" y="-318.8" font-family="Times,serif" font-size="14.00" fill="#000000">States</text>
</g>
<!-- data_store -->
<g id="node5" class="node">
<title>data_store</title>
<ellipse fill="none" stroke="#000000" cx="57.1949" cy="-192" rx="48.1917" ry="18"/>
<text text-anchor="middle" x="57.1949" y="-188.3" font-family="Times,serif" font-size="14.00" fill="#000000">Data Store</text>
</g>
<!-- add&#45;&gt;data_store -->
<g id="edge5" class="edge">
<title>add&#45;&gt;data_store</title>
<path fill="none" stroke="#000000" d="M57.1949,-260.9735C57.1949,-249.1918 57.1949,-233.5607 57.1949,-220.1581"/>
<polygon fill="#000000" stroke="#000000" points="60.695,-220.0033 57.1949,-210.0034 53.695,-220.0034 60.695,-220.0033"/>
<text text-anchor="middle" x="87.6949" y="-231.8" font-family="Times,serif" font-size="14.00" fill="#000000">Transitions</text>
</g>
<!-- data_store&#45;&gt;rep -->
<g id="edge6" class="edge">
<title>data_store&#45;&gt;rep</title>
<path fill="none" stroke="#000000" d="M73.8458,-174.8687C84.0283,-164.6775 97.4972,-151.693 110.1949,-141 115.4029,-136.6143 121.0971,-132.1532 126.7019,-127.9332"/>
<polygon fill="#000000" stroke="#000000" points="128.8217,-130.7188 134.7825,-121.9598 124.6606,-125.0898 128.8217,-130.7188"/>
<text text-anchor="middle" x="134.6949" y="-144.8" font-family="Times,serif" font-size="14.00" fill="#000000">Data IDs</text>
</g>
<!-- batch_gen -->
<g id="node7" class="node">
<title>batch_gen</title>
<ellipse fill="none" stroke="#000000" cx="159.1949" cy="-18" rx="66.8882" ry="18"/>
<text text-anchor="middle" x="159.1949" y="-14.3" font-family="Times,serif" font-size="14.00" fill="#000000">Batch generator</text>
</g>
<!-- data_store&#45;&gt;batch_gen -->
<g id="edge8" class="edge">
<title>data_store&#45;&gt;batch_gen</title>
<path fill="none" stroke="#000000" d="M43.0454,-174.5757C27.2265,-152.8298 5.9507,-115.0856 23.1949,-87 39.6765,-60.1566 70.2122,-43.3608 98.1794,-33.0713"/>
<polygon fill="#000000" stroke="#000000" points="99.6301,-36.273 107.9374,-29.6973 97.3426,-29.6573 99.6301,-36.273"/>
<text text-anchor="middle" x="53.6949" y="-101.3" font-family="Times,serif" font-size="14.00" fill="#000000">Batch Data</text>
</g>
<!-- rep&#45;&gt;batch_gen -->
<g id="edge7" class="edge">
<title>rep&#45;&gt;batch_gen</title>
<path fill="none" stroke="#000000" d="M159.1949,-86.9735C159.1949,-75.1918 159.1949,-59.5607 159.1949,-46.1581"/>
<polygon fill="#000000" stroke="#000000" points="162.695,-46.0033 159.1949,-36.0034 155.695,-46.0034 162.695,-46.0033"/>
<text text-anchor="middle" x="186.6949" y="-57.8" font-family="Times,serif" font-size="14.00" fill="#000000">Batch IDs</text>
</g>
<!-- batch_gen&#45;&gt;learn -->
<g id="edge9" class="edge">
<title>batch_gen&#45;&gt;learn</title>
<path fill="none" stroke="#000000" d="M194.4645,-33.3829C221.1374,-47.6701 253.1949,-71.7565 253.1949,-105 253.1949,-453 253.1949,-453 253.1949,-453 253.1949,-481.9834 228.84,-505.4691 207.0062,-520.7004"/>
<polygon fill="#000000" stroke="#000000" points="204.9162,-517.8864 198.5074,-526.3231 208.7786,-523.7244 204.9162,-517.8864"/>
<text text-anchor="middle" x="307.6949" y="-275.3" font-family="Times,serif" font-size="14.00" fill="#000000">Batched Transitions</text>
</g>
</g>
</svg>
